<svg width="1073" height="1073" viewBox="0 0 1073 1073" fill="none" xmlns="http://www.w3.org/2000/svg">
<path d="M534.355 932.115C510.427 930.452 488.216 927.34 469.599 923.048C448.139 918.112 411.442 905.558 399.049 898.959C397.708 898.262 396.42 897.779 396.26 897.94C396.099 898.154 395.938 897.993 395.938 897.672C395.938 897.35 395.401 896.921 394.757 896.706C392.88 896.169 370.937 885.118 366.913 882.757C348.565 871.92 326.568 856.737 313.853 846.114C305.591 839.247 290.623 825.351 283.004 817.572C270.182 804.428 253.443 784.256 243.303 769.609C235.846 758.933 234.344 756.518 223.828 738.492C218.302 728.996 205.48 703.137 205.48 701.474C205.48 701.313 361.494 701.205 552.113 701.205C852.178 701.205 898.692 701.313 898.156 701.956C897.78 702.386 897.566 703.029 897.619 703.459C897.834 704.478 897.19 706.195 894.078 712.74C892.522 716.013 890.698 719.876 890.055 721.324C888.07 725.723 880.988 739.78 878.359 744.394C873.208 753.568 861.674 771.487 857.382 777.12C855.987 778.891 853.68 782.056 852.231 784.095C839.463 802.175 815.213 828.141 796.167 844.129C791.875 847.723 784.847 853.303 780.501 856.522C776.156 859.795 772.615 862.585 772.561 862.853C772.561 863.067 773.473 863.228 774.6 863.228C777.98 863.228 782.272 864.784 784.203 866.716C785.652 868.164 785.973 868.915 785.973 870.847C785.973 875.407 782.701 877.66 777.55 876.641C775.941 876.265 774.6 876.104 774.492 876.212C774.439 876.265 774.009 877.285 773.473 878.411C772.454 880.665 769.557 882.274 767.357 881.845C766.606 881.738 765.962 881.899 765.855 882.22C765.801 882.542 765.426 884.205 765.05 885.922C764.728 887.693 763.87 889.678 763.119 890.59C760.382 893.809 755.232 893.058 753.408 889.249C752.603 887.585 752.603 886.781 753.193 881.684C753.569 878.572 753.73 875.89 753.569 875.729C753.462 875.621 751.101 876.909 748.311 878.626C731.304 889.409 701.475 903.573 680.551 910.87C676.635 912.211 653.297 919.614 649.059 920.848C637.095 924.336 606.675 929.486 588.273 931.149C579.635 931.954 541.598 932.598 534.355 932.115V932.115ZM541.598 914.089C541.383 910.762 540.9 903.09 540.578 897.028L539.988 886.03L532.477 886.191C520.191 886.512 512.68 884.152 505.867 877.875C499.911 872.349 497.873 868.057 497.873 861.082C497.873 854.644 499.858 849.44 503.882 845.148L505.491 843.485L504.15 839.247C503.399 836.94 502.701 833.882 502.54 832.487C502.379 831.092 502.165 829.751 501.95 829.59C501.145 828.731 481.134 832.809 471.692 835.76L468.365 836.833L468.151 835.652C467.99 835.062 467.614 832.648 467.292 830.287C467.024 827.98 466.595 825.566 466.434 824.869C466.166 823.796 466.595 823.581 473.355 821.703C482.1 819.343 491.864 817.358 499.482 816.499L505.169 815.909L506.457 812.583C510.212 802.765 513.807 796.166 522.176 783.558C538.432 759.201 547.07 753.514 555.654 761.454C562.628 767.839 574.485 787.367 582.103 804.911L585.054 811.832L592.029 811.993C603.671 812.314 625.184 816.285 642.567 821.381C676.259 831.253 709.844 849.548 728.943 868.54L733.343 872.885L739.888 869.076C748.579 863.979 752.925 860.921 753.14 859.634C753.247 859.097 751.476 855.02 749.33 850.621C747.131 846.168 744.073 839.676 742.517 836.135C741.015 832.594 739.513 829.375 739.191 829.053C738.761 828.517 738.869 828.356 739.513 828.356C739.995 828.356 742.41 827.551 744.931 826.532L749.438 824.761L751.691 829.912C755.554 838.657 762.958 853.035 763.655 853.035C764.621 853.035 776.424 844.129 785.973 836.189C795.201 828.517 815.427 808.827 823.475 799.653C832.166 789.835 841.555 777.871 847.725 768.965C861.137 749.544 863.981 744.876 873.208 727.226C879.003 716.12 879.807 714.403 879.861 713.813C879.861 713.438 851.802 713.33 796.382 713.438C717.301 713.545 712.956 713.598 713.224 714.511C713.385 714.993 713.868 717.139 714.351 719.178C714.834 721.27 716.282 726.796 717.623 731.518C718.965 736.239 720.681 742.14 721.379 744.662C722.076 747.183 723.31 751.314 724.115 753.89C724.92 756.465 725.456 758.664 725.295 758.772C725.188 758.879 722.666 759.523 719.662 760.274L714.243 761.615L711.4 751.422C709.844 745.788 708.127 739.619 707.591 737.687C707.054 735.756 705.498 729.533 704.104 723.899L701.636 713.545L463.322 713.438C332.309 713.33 225.009 713.277 224.955 713.277C224.633 713.277 234.075 731.41 236.168 734.898C237.294 736.722 238.207 738.331 238.207 738.492C238.207 738.868 247.917 753.997 252.907 761.293C257.521 768.053 265.729 778.783 273.991 788.923C282.307 799.117 298.456 815.641 312.458 828.302C324.261 838.925 346.311 855.288 362.567 865.482C371.312 870.954 370.454 870.847 375.336 866.984C377.643 865.16 381.613 862.209 384.188 860.492C389.982 856.629 404.575 848.153 405.005 848.475C405.541 848.743 407.633 853.142 409.082 856.79L410.37 860.009L407.848 861.458C394.489 869.022 383.33 876.319 383.866 877.177C384.349 877.928 395.777 883.83 403.449 887.264C412.462 891.287 418.256 893.702 425.177 896.223C428.128 897.296 432.581 898.959 435.102 899.979C441.218 902.393 456.562 906.899 468.097 909.743C481.992 913.123 499.75 916.127 517.991 918.22C533.657 919.99 532.96 919.936 537.788 919.99L542.027 920.097L541.598 914.089V914.089ZM579.153 919.507C604.529 917.308 631.837 912.64 651.044 907.221C664.832 903.359 669.66 901.695 686.989 895.043C699.865 890.107 721.057 880.343 721.057 879.323C721.057 878.572 713.6 871.973 707.323 867.198C688.33 852.874 661.613 840.105 635.539 832.862C621.912 829.107 597.93 824.6 591.331 824.6C589.346 824.6 589.024 824.761 589.292 825.566C591.492 832.487 590.902 840.91 587.79 847.08C584.732 853.088 574.002 860.331 567.135 860.921C564.238 861.19 563.916 861.082 562.199 859.58C560.697 858.239 560.375 857.595 560.375 855.717C560.375 852.928 561.985 851.372 566.116 850.138C574.163 847.831 579.635 841.554 579.582 834.794C579.528 828.678 574.378 813.978 566.867 798.58C561.663 788.011 549.806 769.985 547.928 769.931C547.606 769.877 545.246 772.131 542.671 774.867C538.003 779.803 529.419 792.088 524.59 800.726C522.176 805.018 518.099 812.797 517.991 813.334C517.991 813.495 517.562 814.353 517.079 815.212C515.416 818.377 513.431 826.317 513.431 830.019C513.431 833.882 514.236 836.457 516.275 838.871C518.206 841.178 518.796 842.573 518.796 844.719C518.796 847.348 518.045 848.528 515.685 849.762C511.714 851.801 509.193 856.147 509.139 860.975C509.139 864.57 510.534 867.359 513.592 869.881C518.85 874.173 526.307 876.051 535.106 875.353L539.827 874.924L539.505 869.774C539.291 866.876 538.861 860.975 538.539 856.629C537.949 849.011 538.003 848.635 539.022 847.241C541.115 844.451 545.782 844.397 547.821 847.133C549.538 849.44 549.913 853.679 550.718 880.665C551.523 906.792 551.898 915.001 552.381 918.381L552.649 920.097H562.682C568.208 920.097 575.612 919.829 579.153 919.507Z" fill="black"/>
<path d="M427.215 859.419C426.303 859.151 425.069 858.239 424.479 857.434C423.46 855.986 416.7 835.652 416.056 832.004C415.251 827.605 417.988 823.796 422.011 823.796C425.982 823.796 426.894 825.244 431.078 837.959C434.887 849.655 435.639 853.625 434.566 856.2C433.439 858.937 430.327 860.278 427.215 859.419V859.419Z" fill="black"/>
<path d="M444.812 853.679C443.793 853.196 442.559 851.909 442.023 850.889C441.003 848.85 435.102 820.577 435.102 817.787C435.102 816.607 435.638 815.426 436.657 814.3C437.999 812.797 438.589 812.529 440.681 812.529C442.613 812.529 443.418 812.851 444.705 814.085C445.564 814.89 446.529 816.231 446.851 817.036C447.924 819.718 453.343 845.095 453.343 847.509C453.343 850.621 452.055 852.928 449.856 853.894C447.495 854.859 447.012 854.859 444.812 853.679Z" fill="black"/>
<path d="M733.235 815.104C726.261 796.702 725.295 794.073 721.593 783.29C719.769 778.139 718.213 773.526 718.052 773.043C717.784 772.345 718.696 772.023 723.203 771.272C726.154 770.736 728.729 770.36 728.836 770.521C728.943 770.628 730.392 774.813 732.055 779.803C733.772 784.846 735.918 790.854 736.883 793.215C739.781 800.082 744.555 812.422 744.77 813.548C744.877 814.353 744.072 814.89 740.639 816.338C738.278 817.357 735.971 818.323 735.489 818.43C734.791 818.645 734.308 817.894 733.235 815.104V815.104Z" fill="black"/>
<path d="M301.03 615.634C290.944 613.327 284.56 606.567 281.341 594.657C280.375 591.17 280.321 588.058 280.321 537.573V484.192H287.296H294.27L294.539 537.305L294.807 590.419L296.094 593.53C297.65 597.447 300.065 600.237 303.015 601.524C305.966 602.865 313.37 602.919 316.374 601.685C320.774 599.861 323.456 595.676 324.529 589.024C324.905 586.824 325.119 567.51 325.119 534.73V483.87L331.718 484.031L338.263 484.192V538.378C338.263 589.292 338.21 592.779 337.298 595.73C334.079 606.085 328.982 611.879 320.505 614.883C316.267 616.332 305.966 616.761 301.03 615.634V615.634Z" fill="black"/>
<path d="M476.68 615.902C470.618 614.883 465.95 612.415 462.141 608.23C456.508 602.06 454.308 595.247 454.201 583.712L454.147 576.469L460.907 576.308L467.667 576.147L467.989 583.551C468.364 594.12 470.242 598.52 475.5 601.148C477.807 602.275 478.934 602.49 483.065 602.49C488.537 602.49 491.22 601.578 493.688 598.949C497.121 595.301 498.945 587.038 497.872 580.332C497.067 575.343 495.941 572.821 492.346 568.046C489.074 563.593 486.874 561.501 477.753 553.936C466.755 544.816 461.926 539.344 458.117 531.725C452.645 520.727 453.503 503.935 460.156 493.741C465.038 486.337 472.71 482.689 483.655 482.689C499.214 482.689 508.549 490.307 511.875 505.544C512.573 508.709 512.894 511.875 512.787 514.718L512.626 519.064H505.92H499.214L498.892 514.235C497.98 501.306 493.634 496.263 483.655 496.263C480.811 496.263 479.255 496.585 477.217 497.55C473.944 499.052 472.549 500.555 470.94 504.042C469.867 506.402 469.706 507.529 469.706 513.967C469.706 520.405 469.867 521.532 470.993 524.161C473.676 530.491 479.309 536.768 490.093 545.46C507.047 559.087 512.894 569.012 512.894 583.873C512.894 599.807 506.725 610.323 494.921 614.615C490.844 616.117 481.616 616.761 476.68 615.902V615.902Z" fill="black"/>
<path d="M844.988 616.116C841.608 615.687 836.189 613.648 833.292 611.771C827.015 607.64 822.669 599.968 821.381 590.955C820.684 585.751 820.684 512.894 821.381 507.904C822.615 499.75 826.639 492.078 831.897 488.161C840.535 481.616 856.254 480.704 866.555 486.176C872.403 489.288 877.07 495.458 879.538 503.237C880.558 506.563 880.611 508.387 880.772 547.498C880.933 583.122 880.879 588.809 880.128 592.564C877.875 603.831 871.222 611.932 861.726 614.829C858.185 615.955 849.065 616.599 844.988 616.116V616.116ZM857.649 601.685C862.102 599.86 864.784 595.676 865.857 589.023C866.662 584.195 866.662 514.396 865.857 509.729C865.16 505.544 863.175 501.306 861.19 499.589C858.454 497.228 856.683 496.584 851.587 496.37C847.241 496.155 846.382 496.262 843.754 497.496C840.481 498.999 838.496 501.252 836.779 505.49C835.599 508.334 835.599 508.709 835.438 547.498C835.277 589.023 835.331 590.794 837.745 595.568C839.73 599.485 842.359 601.416 847.402 602.704C849.333 603.187 855.503 602.597 857.649 601.685V601.685Z" fill="black"/>
<path d="M232.144 614.507C231.929 614.293 231.768 587.951 231.768 556.029V497.872L220.126 497.765L208.43 497.604V490.898V484.192H239.547H270.665V490.898V497.604L258.754 497.765L246.79 497.872L246.683 556.244L246.522 614.561L239.494 614.722C235.685 614.776 232.358 614.668 232.144 614.507Z" fill="black"/>
<path d="M353.124 549.537L353.285 484.192H371.258C386.87 484.245 389.66 484.352 392.665 485.211C402.214 487.84 407.579 493.312 410.262 503.237C411.067 506.134 411.228 508.924 411.228 519.6C411.228 531.618 411.12 532.745 409.94 536.5C407.794 543.421 404.897 547.123 399.21 550.342L396.313 551.951L399.103 553.346C404.575 556.136 407.901 560.16 410.047 566.705C411.013 569.656 411.174 572.07 411.55 589.077C411.925 606.889 412.354 611.932 413.642 613.541C413.964 613.863 414.017 614.292 413.803 614.453C413.642 614.668 410.262 614.829 406.399 614.829H399.264L398.727 613.38C397.279 609.625 397.01 606.513 396.849 589.882C396.688 573.036 396.635 572.016 395.454 569.119C393.952 565.203 390.519 562.037 386.334 560.75C384.081 560.052 381.398 559.838 375.55 559.838H367.771L367.61 587.36L367.503 614.829H360.26H353.017L353.124 549.537V549.537ZM388.695 544.333C392.235 542.777 394.274 540.631 395.776 536.929C396.635 534.944 396.742 532.852 396.742 521.746C396.742 510.265 396.635 508.602 395.669 506.188C394.221 502.379 392.396 500.286 389.338 498.838C386.817 497.711 385.958 497.604 377.213 497.604H367.771L367.61 521.21C367.556 534.193 367.61 545.138 367.771 545.567C367.986 546.157 369.702 546.264 376.784 546.05C384.832 545.835 385.744 545.674 388.695 544.333Z" fill="black"/>
<path d="M426.625 549.537L426.786 484.191L433.921 484.03L441.003 483.869V549.376V614.829H433.76H426.518L426.625 549.537Z" fill="black"/>
<path d="M544.924 614.507C544.709 614.293 544.548 587.951 544.548 556.029V497.872L532.638 497.765L520.674 497.604V490.898V484.192H551.791H582.908L583.069 490.576C583.176 495.351 583.015 497.068 582.532 497.443C582.157 497.658 576.684 497.872 570.461 497.872H559.033L558.926 556.244L558.765 614.561L552.005 614.722C548.303 614.776 545.138 614.668 544.924 614.507V614.507Z" fill="black"/>
<path d="M589.453 614.453C589.292 614.185 589.668 611.878 590.151 609.196C590.687 606.567 591.76 600.987 592.565 596.856C595.194 583.014 597.662 570.085 598.735 564.666C599.325 561.715 600.612 554.741 601.685 549.108C602.758 543.528 603.939 537.251 604.368 535.159C605.119 531.564 607.158 520.727 611.396 498.408C612.469 492.668 613.542 487.034 613.864 485.908L614.347 483.923L624.916 484.03L635.484 484.191L636.128 487.41C636.933 491.38 638.274 498.408 641.118 513.43C642.298 519.761 643.639 526.682 644.068 528.721C644.498 530.813 645.678 537.09 646.751 542.67C650.989 565.042 652.974 575.557 653.725 579.152C654.154 581.244 655.335 587.521 656.408 593.101C657.427 598.734 658.768 605.601 659.358 608.391C659.949 611.234 660.431 613.81 660.431 614.185C660.431 614.722 658.661 614.829 653.081 614.722L645.678 614.561L643.156 601.953C641.761 595.032 640.635 589.291 640.635 589.238C640.581 589.13 633.231 589.077 624.218 589.077H607.855L607.64 590.311C607.48 590.955 606.353 596.534 605.173 602.704C603.939 608.874 602.866 614.131 602.705 614.4C602.383 614.936 589.775 614.99 589.453 614.453V614.453ZM638.435 575.342C638.435 574.913 638.06 572.928 637.684 570.943C637.255 568.958 635.86 562.145 634.68 555.814C632.48 544.44 627.652 519.707 625.452 508.441C624.808 505.276 624.111 502.861 623.896 503.076C623.682 503.344 622.823 506.885 622.072 511.016C621.267 515.147 620.194 520.834 619.658 523.624C619.121 526.414 617.834 533.334 616.761 538.914C615.742 544.547 613.756 554.794 612.415 561.715C611.128 568.636 610.001 574.752 610.001 575.289C610.001 576.147 611.02 576.201 624.218 576.201C636.718 576.201 638.435 576.094 638.435 575.342V575.342Z" fill="black"/>
<path d="M671.806 549.537L671.966 484.192H681.087H690.154L691.602 488.752C692.944 493.097 699.167 512.519 703.083 524.697C704.049 527.809 708.019 540.202 711.882 552.22C715.745 564.291 719.071 574.431 719.286 574.752C719.554 575.128 719.822 554.902 719.983 529.794L720.251 484.192H726.689H733.127L733.288 549.537L733.396 614.829H725.67H717.944L717.14 612.307C716.71 610.859 715.477 606.942 714.35 603.562C713.277 600.182 711.936 595.944 711.399 594.174C710.863 592.403 709.575 588.326 708.556 585.053C706.946 580.117 698.04 551.79 691.549 531.403C690.637 528.453 689.564 525.073 689.134 523.892C688.759 522.712 687.793 519.654 686.988 517.025C686.184 514.45 685.325 512.465 685.057 512.68C684.789 512.841 684.574 533.871 684.574 563.915V614.829H678.136H671.698L671.806 549.537Z" fill="black"/>
<path d="M748.149 614.185C747.988 613.81 747.934 584.409 747.988 548.84L748.149 484.192H766.658C786.67 484.245 788.708 484.46 794.61 487.411C799.868 490.093 804.642 496.478 807.003 503.881L808.237 507.798V549.376V590.955L807.003 594.979C805.286 600.397 803.677 603.348 800.726 606.674C797.99 609.732 794.181 612.093 789.728 613.541C787.206 614.346 784.094 614.507 767.57 614.722C752.012 614.883 748.363 614.775 748.149 614.185V614.185ZM783.558 600.826C788.386 599.539 791.713 595.837 793.269 590.043C794.342 585.858 794.342 512.894 793.269 508.763C792.357 505.33 790.801 502.755 788.386 500.662C785.382 497.98 783.451 497.604 772.56 497.604H762.634L762.473 548.84C762.42 577.006 762.473 600.397 762.634 600.773C762.956 601.631 780.393 601.685 783.558 600.826Z" fill="black"/>
<path d="M195.286 394.328C195.286 394.059 194.911 393.791 194.482 393.791C194.052 393.791 193.677 393.737 193.677 393.684C193.677 393.577 195.34 388.587 197.379 382.525C201.241 371.044 203.548 365.088 205.694 360.689C206.392 359.294 208.109 355.485 209.504 352.212C217.605 333.435 229.139 312.672 241.694 294.27C247.112 286.277 247.005 286.437 255.803 274.956C268.679 258.218 290.676 235.202 307.147 221.253C317.179 212.776 332.362 201.456 343.092 194.481C347.545 191.584 351.783 188.794 352.588 188.258C353.393 187.668 354.198 187.239 354.359 187.239C354.573 187.239 355.7 186.541 356.934 185.683C359.992 183.59 374.477 175.758 381.72 172.217C397.761 164.491 401.893 162.506 403.824 161.809C404.951 161.433 408.277 160.092 411.228 158.911C418.9 155.907 432.902 151.239 442.881 148.396C447.602 147.055 452.914 145.499 454.684 144.909C458.01 143.782 460.586 143.192 473.73 140.509C514.826 132.086 559.463 130.906 601.953 137.13C619.926 139.758 628.564 141.582 646.107 146.518C653.887 148.664 654.048 148.718 655.925 147.806C657.374 147.108 659.413 146.894 664.885 146.894C672.664 146.894 680.765 147.86 692.568 150.274C696.86 151.132 700.348 151.776 700.401 151.669C700.455 151.615 701.903 148.772 703.567 145.392C709.039 134.447 714.619 128.492 720.681 127.151C724.973 126.239 728.836 127.365 732.216 130.584C737.527 135.574 738.439 144.641 734.791 157.087L733.503 161.54L735.757 162.399C736.937 162.882 740.746 164.759 744.126 166.476C765.962 177.743 775.243 185.361 775.243 191.96C775.243 193.999 774.975 194.642 773.204 196.359C770.575 198.988 768.215 199.471 763.118 198.451C760.328 197.861 759.363 197.861 759.524 198.291C759.631 198.612 760.275 199.149 760.919 199.471C762.206 200.061 777.657 211.381 784.632 216.853C797.132 226.671 813.817 242.391 827.015 256.769C841.769 272.81 861.244 298.723 871.169 315.462C879.27 329.143 890.698 351.139 894.775 360.904C901.696 377.428 907.276 392.611 906.9 393.952C906.632 394.81 889.196 394.864 550.932 394.864C314.175 394.864 195.286 394.703 195.286 394.328V394.328ZM401.302 380.432C401.302 377.911 399.532 372.009 397.708 368.307C395.615 364.176 391.484 358.865 388.587 356.665C384.564 353.607 378.287 350.442 374.477 349.584C370.132 348.511 363.265 348.511 359.563 349.476C355.914 350.496 351.032 353.178 348.886 355.485C345.614 358.972 340.946 357.47 339.605 352.481C338.854 349.691 339.337 345.506 341 340.141C342.985 333.703 343.521 329.25 343.199 322.437C342.717 312.78 340.839 308.058 335.045 302.318C330.592 297.865 324.958 294.7 318.145 292.822C314.067 291.695 312.458 291.588 302.586 291.642C292.768 291.642 290.891 291.802 285.15 293.09C269.913 296.416 251.887 303.927 247.273 308.863C242.445 314.014 224.418 347.813 217.39 364.82C214.6 371.58 210.845 381.613 210.845 382.31C210.845 382.417 253.711 382.525 306.074 382.525H401.302V380.432V380.432ZM680.497 378.662C680.658 376.516 681.355 365.786 681.999 354.841L683.18 334.991L685.648 335.366C686.989 335.581 689.564 335.796 691.442 335.796L694.822 335.849L694.5 339.229C694.071 343.736 692.086 377.964 692.086 380.486V382.525H732.752H773.365L774.331 379.896C776.96 372.492 785.705 362.728 796.167 355.485C811.671 344.755 821.543 341.751 848.153 339.712L853.143 339.336L854.055 336.922C855.933 332.147 858.079 328.124 859.849 326.138L861.673 324.1L858.347 318.842C850.085 305.751 848.153 303.015 835.599 286.491C823.206 270.182 802.229 248.292 784.256 232.948C772.775 223.184 755.285 210.415 740.21 200.758C736.132 198.13 721.486 189.867 716.389 187.292L714.136 186.166L713.653 189.009C713.331 190.511 712.58 194.75 711.936 198.344C710.809 204.568 710.702 204.943 709.629 204.675C704.479 203.495 700.509 202.851 700.026 203.173C699.597 203.387 699.543 202.904 699.811 201.67C700.562 197.861 702.923 184.717 703.191 182.678L703.459 180.532L695.251 176.938C690.691 174.953 685.648 172.807 684.038 172.217C677.868 169.802 666.494 165.671 664.187 164.974C662.846 164.598 659.413 163.418 656.569 162.345C637.792 155.478 597.769 148.02 571.373 146.465C560.697 145.821 536.179 145.821 524.429 146.465C497.872 147.86 457.206 155.531 437.57 162.774C434.887 163.794 430.381 165.403 427.591 166.315C411.603 171.734 394.542 179.298 377.965 188.312C357.739 199.31 357.631 199.417 340.678 211.488C313.638 230.749 291.749 251.082 270.611 276.566C265.246 283.058 262.295 286.813 261.651 287.886C261.49 288.208 264.763 287.296 269.001 285.901C280.965 281.877 289.013 280.482 301.513 280.214C311.17 279.946 312.458 280.053 318.52 281.287C329.304 283.54 337.03 287.671 343.521 294.485C349.584 300.923 352.856 308.595 354.09 319.003C354.734 324.529 354.198 333.81 353.017 337.995C352.749 338.961 352.588 339.873 352.695 339.98C352.749 340.087 353.876 339.766 355.11 339.336C359.616 337.781 366.001 337.19 371.473 337.888C392.021 340.463 406.185 352.695 411.281 372.278C411.979 375.014 412.569 378.447 412.569 379.896V382.525H546.372H680.175L680.497 378.662V378.662ZM890.054 382.256C890.054 381.72 886.299 372.063 885.226 369.917C884.689 368.737 882.489 364.176 880.397 359.723C874.066 346.311 869.453 337.459 868.862 337.62C868.594 337.727 867.36 340.034 866.18 342.716C864.248 347.169 863.766 347.813 860.976 349.798C857.435 352.32 856.255 352.588 843.915 353.822C822.562 355.968 811.779 359.992 798.634 370.668C795.094 373.511 788.119 381.076 788.119 382.095C788.119 382.31 811.081 382.525 839.087 382.525C867.146 382.525 890.054 382.417 890.054 382.256V382.256Z" fill="black"/>
<path d="M689.671 324.046C687.042 323.831 684.628 323.778 684.359 323.939C684.091 324.1 684.038 323.402 684.198 322.383C684.359 321.363 684.789 317.662 685.111 314.121C685.969 304.249 686.505 299.152 687.471 291.856C687.954 288.154 688.759 281.663 689.295 277.371L690.207 269.645L693.158 269.86C694.768 269.967 697.236 270.074 698.684 270.128C700.079 270.128 701.206 270.235 701.206 270.396C701.206 270.503 700.83 273.508 700.401 277.102C698.47 292.714 695.841 319.754 695.841 323.617C695.841 324.153 695.519 324.529 695.197 324.529C694.821 324.475 692.353 324.261 689.671 324.046V324.046Z" fill="black"/>
<path d="M695.09 258.217L691.442 258.003L691.764 256.286C691.925 255.32 692.408 251.672 692.89 248.131C693.32 244.59 694.607 235.47 695.68 227.851L697.665 213.956L699.06 214.278C699.811 214.439 702.118 214.868 704.157 215.19C706.249 215.566 708.127 215.995 708.342 216.209C708.61 216.424 708.073 220.931 707.161 226.188C705.713 234.772 702.816 255.749 702.816 257.788C702.816 258.378 702.279 258.539 700.831 258.486C699.704 258.432 697.129 258.271 695.09 258.217V258.217Z" fill="black"/>
</svg>
